<mxfile host="app.diagrams.net" modified="2023-06-28T23:09:40.775Z" agent="Mozilla/5.0 (Macintosh; Intel Mac OS X 10_15_7) AppleWebKit/537.36 (KHTML, like Gecko) Chrome/113.0.0.0 Safari/537.36" etag="-SCb0APlCOLieXbCG9ky" version="21.5.2" type="github">
  <diagram name="Sayfa -1" id="Lz1qNvJ1dsitQYk0JY-f">
    <mxGraphModel dx="1366" dy="765" grid="1" gridSize="10" guides="1" tooltips="1" connect="1" arrows="1" fold="1" page="1" pageScale="1" pageWidth="827" pageHeight="1169" math="0" shadow="0">
      <root>
        <mxCell id="0" />
        <mxCell id="1" parent="0" />
        <mxCell id="S6tB6EaiRGV0ZJyYKMZR-1" value="" style="rounded=0;whiteSpace=wrap;html=1;" vertex="1" parent="1">
          <mxGeometry x="30" y="130" width="120" height="60" as="geometry" />
        </mxCell>
        <mxCell id="S6tB6EaiRGV0ZJyYKMZR-2" value="Login&lt;br&gt;&lt;br&gt;The user enters their own email and password." style="text;html=1;strokeColor=none;fillColor=none;align=left;verticalAlign=middle;whiteSpace=wrap;rounded=0;fontSize=8;" vertex="1" parent="1">
          <mxGeometry x="40" y="140" width="100" height="40" as="geometry" />
        </mxCell>
        <mxCell id="S6tB6EaiRGV0ZJyYKMZR-4" value="&lt;h1&gt;Admin&lt;/h1&gt;&lt;p&gt;Meridia has two interfaces for users. An admin account is created by us for the company that purchased the membership.&amp;nbsp;&lt;/p&gt;" style="text;html=1;strokeColor=none;fillColor=none;spacing=5;spacingTop=-20;whiteSpace=wrap;overflow=hidden;rounded=0;" vertex="1" parent="1">
          <mxGeometry x="30" y="20" width="400" height="80" as="geometry" />
        </mxCell>
        <mxCell id="S6tB6EaiRGV0ZJyYKMZR-7" value="" style="endArrow=classic;html=1;rounded=0;" edge="1" parent="1">
          <mxGeometry width="50" height="50" relative="1" as="geometry">
            <mxPoint x="150" y="160" as="sourcePoint" />
            <mxPoint x="190" y="160" as="targetPoint" />
          </mxGeometry>
        </mxCell>
        <mxCell id="S6tB6EaiRGV0ZJyYKMZR-8" value="" style="rounded=0;whiteSpace=wrap;html=1;" vertex="1" parent="1">
          <mxGeometry x="190" y="130" width="120" height="60" as="geometry" />
        </mxCell>
        <mxCell id="S6tB6EaiRGV0ZJyYKMZR-9" value="Dashboard&lt;br&gt;&lt;br&gt;The user can show theirs graphics on dashboard." style="text;html=1;strokeColor=none;fillColor=none;align=left;verticalAlign=middle;whiteSpace=wrap;rounded=0;fontSize=8;" vertex="1" parent="1">
          <mxGeometry x="200" y="140" width="100" height="40" as="geometry" />
        </mxCell>
        <mxCell id="S6tB6EaiRGV0ZJyYKMZR-10" value="" style="endArrow=classic;html=1;rounded=0;" edge="1" parent="1">
          <mxGeometry width="50" height="50" relative="1" as="geometry">
            <mxPoint x="200" y="190" as="sourcePoint" />
            <mxPoint x="200" y="240" as="targetPoint" />
          </mxGeometry>
        </mxCell>
        <mxCell id="S6tB6EaiRGV0ZJyYKMZR-11" value="" style="rounded=0;whiteSpace=wrap;html=1;" vertex="1" parent="1">
          <mxGeometry x="140" y="240" width="90" height="40" as="geometry" />
        </mxCell>
        <mxCell id="S6tB6EaiRGV0ZJyYKMZR-12" value="Manage Branch&lt;br style=&quot;font-size: 6px;&quot;&gt;&lt;br style=&quot;font-size: 6px;&quot;&gt;company manages all branches of its own." style="text;html=1;strokeColor=none;fillColor=none;align=left;verticalAlign=middle;whiteSpace=wrap;rounded=0;fontSize=6;" vertex="1" parent="1">
          <mxGeometry x="140" y="240" width="90" height="30" as="geometry" />
        </mxCell>
        <mxCell id="S6tB6EaiRGV0ZJyYKMZR-13" value="" style="endArrow=classic;html=1;rounded=0;entryX=0.083;entryY=-0.011;entryDx=0;entryDy=0;entryPerimeter=0;exitX=0.188;exitY=1.017;exitDx=0;exitDy=0;exitPerimeter=0;" edge="1" parent="1" source="S6tB6EaiRGV0ZJyYKMZR-8">
          <mxGeometry width="50" height="50" relative="1" as="geometry">
            <mxPoint x="229.57999999999998" y="190" as="sourcePoint" />
            <mxPoint x="279.96000000000004" y="239.33999999999992" as="targetPoint" />
            <Array as="points">
              <mxPoint x="280" y="220" />
            </Array>
          </mxGeometry>
        </mxCell>
        <mxCell id="S6tB6EaiRGV0ZJyYKMZR-19" value="" style="endArrow=classic;html=1;rounded=0;exitX=0.5;exitY=1;exitDx=0;exitDy=0;entryX=0.564;entryY=-0.02;entryDx=0;entryDy=0;entryPerimeter=0;" edge="1" parent="1" source="S6tB6EaiRGV0ZJyYKMZR-8">
          <mxGeometry width="50" height="50" relative="1" as="geometry">
            <mxPoint x="300" y="210" as="sourcePoint" />
            <mxPoint x="390.76" y="239.39999999999998" as="targetPoint" />
            <Array as="points" />
          </mxGeometry>
        </mxCell>
        <mxCell id="S6tB6EaiRGV0ZJyYKMZR-22" value="" style="rounded=0;whiteSpace=wrap;html=1;" vertex="1" parent="1">
          <mxGeometry x="240" y="240" width="90" height="40" as="geometry" />
        </mxCell>
        <mxCell id="S6tB6EaiRGV0ZJyYKMZR-23" value="&lt;font style=&quot;font-size: 6px;&quot;&gt;Manage Product&amp;nbsp;&lt;br style=&quot;&quot;&gt;&lt;br style=&quot;&quot;&gt;the company manages its products&lt;/font&gt;" style="text;html=1;strokeColor=none;fillColor=none;align=left;verticalAlign=middle;whiteSpace=wrap;rounded=0;fontSize=6;" vertex="1" parent="1">
          <mxGeometry x="240" y="240" width="90" height="30" as="geometry" />
        </mxCell>
        <mxCell id="S6tB6EaiRGV0ZJyYKMZR-24" value="" style="rounded=0;whiteSpace=wrap;html=1;" vertex="1" parent="1">
          <mxGeometry x="340" y="240" width="90" height="40" as="geometry" />
        </mxCell>
        <mxCell id="S6tB6EaiRGV0ZJyYKMZR-27" value="Finance" style="text;html=1;strokeColor=none;fillColor=none;align=left;verticalAlign=middle;whiteSpace=wrap;rounded=0;fontSize=6;" vertex="1" parent="1">
          <mxGeometry x="340" y="240" width="90" height="30" as="geometry" />
        </mxCell>
      </root>
    </mxGraphModel>
  </diagram>
</mxfile>
